<?xml version="1.0" encoding="utf-8"?>
<!-- Generator: Adobe Illustrator 21.0.2, SVG Export Plug-In . SVG Version: 6.00 Build 0)  -->
<svg version="1.1" id="Layer_1" xmlns="http://www.w3.org/2000/svg" xmlns:xlink="http://www.w3.org/1999/xlink" x="0px" y="0px"
	 viewBox="0 0 600 100" style="enable-background:new 0 0 600 100;" xml:space="preserve">
<style type="text/css">
	.st0{fill:url(#SVGID_1_);}
	.st1{fill:url(#SVGID_2_);}
	.st2{fill:url(#SVGID_3_);}
	.st3{fill:url(#SVGID_4_);}
</style>
<g>
	<path d="M70.3,52.6v40.1v1.3h-2.5v-1.3V52.6H10.2v40.1v1.3H7.7v-1.3V52.6v-2.5V10V8.8h2.5V10v40.1h57.6V10V8.8h2.5V10v40.1V52.6z"
		/>
	<path d="M87.7,93.1l-0.2,0.8h-2.8l0.8-1.8l36.3-82.6c0.4-0.9,1.9-0.9,2.3,0l36.3,82.6l0.8,1.8h-2.8l-0.2-0.8l-35.2-80L87.7,93.1z"
		/>
	<path d="M175.4,10V8.8h2.5V10v81.4h46.3h1.3v2.5h-1.3h-47.6c-0.8,0-1.3-0.5-1.3-1.3V10z"/>
	<path d="M240.5,10V8.8h2.5V10v81.4h46.3h1.3v2.5h-1.3h-47.6c-0.8,0-1.3-0.5-1.3-1.3V10z"/>
</g>
<linearGradient id="SVGID_1_" gradientUnits="userSpaceOnUse" x1="294.5088" y1="50.8132" x2="348.3296" y2="50.8132">
	<stop  offset="0" style="stop-color:#1A1A1A"/>
	<stop  offset="1" style="stop-color:#000000"/>
</linearGradient>
<path class="st0" d="M347.2,66.2c-1.4-4.4-4.1-8.5-8.1-12.1c-2-1.9-4.7-4.5-7-6.7l-15.5-14.9c-3.9-3.8-4-6.6-3.5-8.4
	c0.7-2.6,3.5-4.7,6.7-5.4c2.6-0.5,7.5-0.5,12.3,5.2l11.4-9.1c-3.6-4.4-7.9-7.5-12.6-9.4c-4.5-1.6-9.3-2-13.8-1
	c-4.1,0.7-8,2.6-11.1,5.3c-3.4,2.9-5.8,6.4-6.9,10.4c-1.1,3.8-1,7.9,0.3,11.8c1.3,4,3.6,7.8,7.1,11.1l11.4,10.8
	c0.5,0.5,7.3,7.1,11.4,11c2.6,2.5,5.5,6.3,4.3,10.5c-1.1,3.8-5,6.9-9.8,7.8c-2.7,0.6-5.8,0.4-8.5-0.7c-3.4-1.3-6.5-3.8-9.2-7.3
	l-11.5,9c4.4,5.6,9.5,9.5,15.4,11.9c3.5,1.4,7.3,2,11,2c1.9,0,3.8-0.1,5.6-0.5c10.1-2,18.3-9.1,20.9-18.2
	C348.7,74.9,348.6,70.4,347.2,66.2z"/>
<linearGradient id="SVGID_2_" gradientUnits="userSpaceOnUse" x1="342.8121" y1="51.3389" x2="472.8894" y2="51.3389">
	<stop  offset="0" style="stop-color:#1A1A1A"/>
	<stop  offset="1" style="stop-color:#000000"/>
</linearGradient>
<path class="st1" d="M457,2.8L432.6,64l-16.5-38.8l-8.1-18.9l-7.5,19.2L385,64L358.8,2.8h-16l42.6,97l23-56l24.5,56l39.9-97H457z"/>
<linearGradient id="SVGID_3_" gradientUnits="userSpaceOnUse" x1="445.739" y1="49.648" x2="525.8678" y2="49.648">
	<stop  offset="0" style="stop-color:#1A1A1A"/>
	<stop  offset="1" style="stop-color:#000000"/>
</linearGradient>
<path class="st2" d="M485.9,1.4l-40.1,96.4h15.9l5.6-14l2.3-5.7l8.1-20.1l1.7-4.1l6.6-16.7l6.6,16.7l4.5,11.4l5.2,12.9h0.1l4.9,12.5
	l2.9,7.2h15.8L485.9,1.4z"/>
<linearGradient id="SVGID_4_" gradientUnits="userSpaceOnUse" x1="535.9303" y1="51.7327" x2="595" y2="51.7327">
	<stop  offset="0" style="stop-color:#1A1A1A"/>
	<stop  offset="1" style="stop-color:#000000"/>
</linearGradient>
<path class="st3" d="M587.5,14.8c-3.8-4.1-10.9-9.1-23.2-9.1h-28.4v92.2h15.4V67.1h13c12.3,0,19.4-5,23.2-9.3
	c5-5.4,7.5-12.9,7.5-21.6C595,27.6,592.5,20.3,587.5,14.8z M577.7,49.1c-3,3.2-7.5,4.9-13.5,4.9h-12.9V18.8h12.9
	c6,0,10.5,1.7,13.5,5c3.4,3.7,4.1,9,4.1,12.6C581.8,40.1,581.1,45.3,577.7,49.1z"/>
</svg>
